{
  "accessors": [
    {
      "bufferView": 2,
      "componentType": 5126,
      "count": 8754,
      "max": [
        309.9311218261719,
        279.96087646484375,
        127.83768463134766
      ],
      "min": [
        -309.9311218261719,
        0.0,
        -127.83768463134766
      ],
      "type": "VEC3"
    },
    {
      "bufferView": 2,
      "byteOffset": 105048,
      "componentType": 5126,
      "count": 8754,
      "max": [
        1.0,
        1.0,
        1.0
      ],
      "min": [
        -1.0,
        -1.0,
        -1.0
      ],
      "type": "VEC3"
    },
    {
      "bufferView": 3,
      "componentType": 5126,
      "count": 8754,
      "max": [
        1.0,
        1.0,
        1.0,
        1.0
      ],
      "min": [
        -1.0,
        -1.0,
        -1.0,
        -1.0
      ],
      "type": "VEC4"
    },
    {
      "bufferView": 1,
      "componentType": 5126,
      "count": 8754,
      "max": [
        0.9933223724365234,
        0.9965339303016663
      ],
      "min": [
        0.0039062497671693563,
        -0.16975007951259613
      ],
      "type": "VEC2"
    },
    {
      "bufferView": 1,
      "byteOffset": 70032,
      "componentType": 5126,
      "count": 8754,
      "max": [
        0.9933223724365234,
        0.9965339303016663
      ],
      "min": [
        0.0039062497671693563,
        -0.16975007951259613
      ],
      "type": "VEC2"
    },
    {
      "bufferView": 0,
      "componentType": 5125,
      "count": 21198,
      "type": "SCALAR"
    },
    {
      "bufferView": 2,
      "byteOffset": 210096,
      "componentType": 5126,
      "count": 441,
      "max": [
        300.82196044921875,
        276.065673828125,
        125.00022888183594
      ],
      "min": [
        -305.9078674316406,
        0.0,
        -125.06041717529297
      ],
      "type": "VEC3"
    },
    {
      "bufferView": 2,
      "byteOffset": 215388,
      "componentType": 5126,
      "count": 441,
      "max": [
        1.0,
        1.0,
        1.0
      ],
      "min": [
        -1.0,
        -1.0,
        -1.0
      ],
      "type": "VEC3"
    },
    {
      "bufferView": 3,
      "byteOffset": 140064,
      "componentType": 5126,
      "count": 441,
      "max": [
        1.0,
        1.0,
        1.0,
        1.0
      ],
      "min": [
        -1.0,
        -1.0,
        -1.0,
        -1.0
      ],
      "type": "VEC4"
    },
    {
      "bufferView": 1,
      "byteOffset": 140064,
      "componentType": 5126,
      "count": 441,
      "max": [
        1.2268670797348022,
        0.9897391200065613
      ],
      "min": [
        -0.21074695885181427,
        0.0078125
      ],
      "type": "VEC2"
    },
    {
      "bufferView": 1,
      "byteOffset": 143592,
      "componentType": 5126,
      "count": 441,
      "max": [
        1.2268670797348022,
        0.9897391200065613
      ],
      "min": [
        -0.21074695885181427,
        0.0078125
      ],
      "type": "VEC2"
    },
    {
      "bufferView": 0,
      "byteOffset": 84792,
      "componentType": 5125,
      "count": 1098,
      "type": "SCALAR"
    }
  ],
  "asset": {
    "extras": {
      "author": "ryan_dymon (https://sketchfab.com/rayndemon)",
      "license": "CC-BY-4.0 (http://creativecommons.org/licenses/by/4.0/)",
      "source": "https://sketchfab.com/3d-models/sea-cargo-container-legendarygamedev-dec32c3dcc984ee79f914ebcd51bed44",
      "title": "Sea cargo container - LegendaryGameDev"
    },
    "generator": "Sketchfab-15.22.0",
    "version": "2.0"
  },
  "bufferViews": [
    {
      "buffer": 0,
      "byteLength": 89184,
      "name": "floatBufferViews",
      "target": 34963
    },
    {
      "buffer": 0,
      "byteLength": 147120,
      "byteOffset": 89184,
      "byteStride": 8,
      "name": "floatBufferViews",
      "target": 34962
    },
    {
      "buffer": 0,
      "byteLength": 220680,
      "byteOffset": 236304,
      "byteStride": 12,
      "name": "floatBufferViews",
      "target": 34962
    },
    {
      "buffer": 0,
      "byteLength": 147120,
      "byteOffset": 456984,
      "byteStride": 16,
      "name": "floatBufferViews",
      "target": 34962
    }
  ],
  "buffers": [
    {
      "byteLength": 604104,
      "uri": "scene.bin"
    }
  ],
  "images": [
    {
      "uri": "textures/UvSet01_baseColor.png"
    },
    {
      "uri": "textures/UvSet01_metallicRoughness.png"
    },
    {
      "uri": "textures/UvSet01_normal.png"
    },
    {
      "uri": "textures/UvSet02_baseColor.png"
    },
    {
      "uri": "textures/UvSet02_metallicRoughness.png"
    },
    {
      "uri": "textures/UvSet02_normal.png"
    }
  ],
  "materials": [
    {
      "doubleSided": true,
      "name": "UvSet01",
      "normalTexture": {
        "index": 2
      },
      "pbrMetallicRoughness": {
        "baseColorTexture": {
          "index": 0
        },
        "metallicRoughnessTexture": {
          "index": 1
        }
      }
    },
    {
      "alphaCutoff": 0.5043824895466348,
      "alphaMode": "MASK",
      "doubleSided": true,
      "name": "UvSet02",
      "normalTexture": {
        "index": 5
      },
      "pbrMetallicRoughness": {
        "baseColorTexture": {
          "index": 3
        },
        "metallicRoughnessTexture": {
          "index": 4
        }
      }
    }
  ],
  "meshes": [
    {
      "name": "Part2_Low.002_UvSet01_0",
      "primitives": [
        {
          "attributes": {
            "NORMAL": 1,
            "POSITION": 0,
            "TANGENT": 2,
            "TEXCOORD_0": 3,
            "TEXCOORD_1": 4
          },
          "indices": 5,
          "material": 0,
          "mode": 4
        }
      ]
    },
    {
      "name": "Part2_Low.002_UvSet02_0",
      "primitives": [
        {
          "attributes": {
            "NORMAL": 7,
            "POSITION": 6,
            "TANGENT": 8,
            "TEXCOORD_0": 9,
            "TEXCOORD_1": 10
          },
          "indices": 11,
          "material": 1,
          "mode": 4
        }
      ]
    }
  ],
  "nodes": [
    {
      "children": [
        1
      ],
      "matrix": [
        1.0,
        0.0,
        0.0,
        0.0,
        0.0,
        2.220446049250313e-16,
        -1.0,
        0.0,
        0.0,
        1.0,
        2.220446049250313e-16,
        0.0,
        0.0,
        0.0,
        0.0,
        1.0
      ],
      "name": "Sketchfab_model"
    },
    {
      "children": [
        2
      ],
      "matrix": [
        0.009999999776482582,
        0.0,
        0.0,
        0.0,
        0.0,
        0.0,
        0.009999999776482582,
        0.0,
        0.0,
        -0.009999999776482582,
        0.0,
        0.0,
        0.0,
        0.0,
        0.0,
        1.0
      ],
      "name": "891f6ef541924fffb65609738cb33527.fbx"
    },
    {
      "children": [
        3
      ],
      "name": "RootNode"
    },
    {
      "children": [
        4,
        5
      ],
      "name": "Part2_Low.002"
    },
    {
      "mesh": 0,
      "name": "Part2_Low.002_UvSet01_0"
    },
    {
      "mesh": 1,
      "name": "Part2_Low.002_UvSet02_0"
    }
  ],
  "samplers": [
    {
      "magFilter": 9729,
      "minFilter": 9987,
      "wrapS": 10497,
      "wrapT": 10497
    }
  ],
  "scene": 0,
  "scenes": [
    {
      "name": "Sketchfab_Scene",
      "nodes": [
        0
      ]
    }
  ],
  "textures": [
    {
      "sampler": 0,
      "source": 0
    },
    {
      "sampler": 0,
      "source": 1
    },
    {
      "sampler": 0,
      "source": 2
    },
    {
      "sampler": 0,
      "source": 3
    },
    {
      "sampler": 0,
      "source": 4
    },
    {
      "sampler": 0,
      "source": 5
    }
  ]
}
